<mxfile host="Electron" modified="2023-04-30T19:25:48.292Z" agent="Mozilla/5.0 (Macintosh; Intel Mac OS X 10_15_7) AppleWebKit/537.36 (KHTML, like Gecko) draw.io/21.2.1 Chrome/112.0.5615.87 Electron/24.1.2 Safari/537.36" etag="poKNrn3SV3kz1z6Q_iU9" version="21.2.1" type="device">
  <diagram name="Page-1" id="oiDOwIseU5BvPzYJeGbI">
    <mxGraphModel dx="1242" dy="822" grid="1" gridSize="10" guides="1" tooltips="1" connect="1" arrows="1" fold="1" page="1" pageScale="1" pageWidth="1169" pageHeight="827" math="0" shadow="0">
      <root>
        <mxCell id="0" />
        <mxCell id="1" parent="0" />
        <mxCell id="AUySJYUAtM3CedbyxXsD-10" style="edgeStyle=orthogonalEdgeStyle;rounded=0;orthogonalLoop=1;jettySize=auto;html=1;entryX=0;entryY=0.5;entryDx=0;entryDy=0;strokeWidth=3;" edge="1" parent="1" source="AUySJYUAtM3CedbyxXsD-1" target="AUySJYUAtM3CedbyxXsD-3">
          <mxGeometry relative="1" as="geometry" />
        </mxCell>
        <mxCell id="AUySJYUAtM3CedbyxXsD-1" value="&lt;font style=&quot;font-size: 18px;&quot;&gt;&lt;b&gt;Web Browser&lt;/b&gt;&lt;/font&gt;" style="rounded=1;whiteSpace=wrap;html=1;fillColor=#fff2cc;strokeColor=#d6b656;" vertex="1" parent="1">
          <mxGeometry x="170" y="160" width="160" height="100" as="geometry" />
        </mxCell>
        <mxCell id="AUySJYUAtM3CedbyxXsD-11" style="edgeStyle=orthogonalEdgeStyle;rounded=0;orthogonalLoop=1;jettySize=auto;html=1;entryX=0;entryY=0.5;entryDx=0;entryDy=0;strokeWidth=3;" edge="1" parent="1" source="AUySJYUAtM3CedbyxXsD-2" target="AUySJYUAtM3CedbyxXsD-3">
          <mxGeometry relative="1" as="geometry" />
        </mxCell>
        <mxCell id="AUySJYUAtM3CedbyxXsD-2" value="&lt;font style=&quot;font-size: 18px;&quot;&gt;&lt;b&gt;Postman, Curl, ...&lt;/b&gt;&lt;/font&gt;" style="rounded=1;whiteSpace=wrap;html=1;fillColor=#fff2cc;strokeColor=#d6b656;" vertex="1" parent="1">
          <mxGeometry x="170" y="320" width="160" height="100" as="geometry" />
        </mxCell>
        <mxCell id="AUySJYUAtM3CedbyxXsD-7" style="edgeStyle=orthogonalEdgeStyle;rounded=0;orthogonalLoop=1;jettySize=auto;html=1;entryX=0;entryY=0.5;entryDx=0;entryDy=0;strokeWidth=3;" edge="1" parent="1" source="AUySJYUAtM3CedbyxXsD-3" target="AUySJYUAtM3CedbyxXsD-4">
          <mxGeometry relative="1" as="geometry" />
        </mxCell>
        <mxCell id="AUySJYUAtM3CedbyxXsD-8" style="edgeStyle=orthogonalEdgeStyle;rounded=0;orthogonalLoop=1;jettySize=auto;html=1;entryX=0;entryY=0.5;entryDx=0;entryDy=0;strokeWidth=3;" edge="1" parent="1" source="AUySJYUAtM3CedbyxXsD-3" target="AUySJYUAtM3CedbyxXsD-5">
          <mxGeometry relative="1" as="geometry" />
        </mxCell>
        <mxCell id="AUySJYUAtM3CedbyxXsD-24" style="edgeStyle=orthogonalEdgeStyle;rounded=0;orthogonalLoop=1;jettySize=auto;html=1;exitX=0.5;exitY=1;exitDx=0;exitDy=0;entryX=0.5;entryY=0;entryDx=0;entryDy=0;strokeWidth=3;" edge="1" parent="1" source="AUySJYUAtM3CedbyxXsD-3" target="AUySJYUAtM3CedbyxXsD-20">
          <mxGeometry relative="1" as="geometry" />
        </mxCell>
        <mxCell id="AUySJYUAtM3CedbyxXsD-25" value="&lt;font style=&quot;font-size: 14px;&quot;&gt;JWT&lt;/font&gt;" style="edgeLabel;html=1;align=center;verticalAlign=middle;resizable=0;points=[];" vertex="1" connectable="0" parent="AUySJYUAtM3CedbyxXsD-24">
          <mxGeometry x="0.1747" y="2" relative="1" as="geometry">
            <mxPoint y="1" as="offset" />
          </mxGeometry>
        </mxCell>
        <mxCell id="AUySJYUAtM3CedbyxXsD-3" value="&lt;font style=&quot;font-size: 18px;&quot;&gt;&lt;b&gt;Spring Cloud Gateway&lt;/b&gt;&lt;/font&gt;" style="rounded=1;whiteSpace=wrap;html=1;fillColor=#dae8fc;strokeColor=#6c8ebf;" vertex="1" parent="1">
          <mxGeometry x="480" y="130" width="160" height="310" as="geometry" />
        </mxCell>
        <mxCell id="AUySJYUAtM3CedbyxXsD-17" style="edgeStyle=orthogonalEdgeStyle;rounded=0;orthogonalLoop=1;jettySize=auto;html=1;entryX=0;entryY=0.5;entryDx=0;entryDy=0;entryPerimeter=0;strokeWidth=3;" edge="1" parent="1" source="AUySJYUAtM3CedbyxXsD-4" target="AUySJYUAtM3CedbyxXsD-14">
          <mxGeometry relative="1" as="geometry" />
        </mxCell>
        <mxCell id="AUySJYUAtM3CedbyxXsD-4" value="&lt;font style=&quot;font-size: 18px;&quot;&gt;&lt;b&gt;Customer &lt;br&gt;Service&lt;/b&gt;&lt;/font&gt;" style="rounded=1;whiteSpace=wrap;html=1;fillColor=#d5e8d4;strokeColor=#82b366;" vertex="1" parent="1">
          <mxGeometry x="800" y="120" width="160" height="100" as="geometry" />
        </mxCell>
        <mxCell id="AUySJYUAtM3CedbyxXsD-18" style="edgeStyle=orthogonalEdgeStyle;rounded=0;orthogonalLoop=1;jettySize=auto;html=1;entryX=0;entryY=0.5;entryDx=0;entryDy=0;entryPerimeter=0;strokeWidth=3;" edge="1" parent="1" source="AUySJYUAtM3CedbyxXsD-5" target="AUySJYUAtM3CedbyxXsD-15">
          <mxGeometry relative="1" as="geometry" />
        </mxCell>
        <mxCell id="AUySJYUAtM3CedbyxXsD-5" value="&lt;font style=&quot;font-size: 18px;&quot;&gt;&lt;b&gt;Product Service&lt;/b&gt;&lt;/font&gt;" style="rounded=1;whiteSpace=wrap;html=1;fillColor=#d5e8d4;strokeColor=#82b366;" vertex="1" parent="1">
          <mxGeometry x="800" y="340" width="160" height="100" as="geometry" />
        </mxCell>
        <mxCell id="AUySJYUAtM3CedbyxXsD-14" value="&lt;font style=&quot;font-size: 18px;&quot;&gt;&lt;b&gt;H2 DB&lt;/b&gt;&lt;/font&gt;" style="shape=cylinder3;whiteSpace=wrap;html=1;boundedLbl=1;backgroundOutline=1;size=15;fillColor=#f5f5f5;fontColor=#333333;strokeColor=#666666;" vertex="1" parent="1">
          <mxGeometry x="1050" y="115" width="80" height="110" as="geometry" />
        </mxCell>
        <mxCell id="AUySJYUAtM3CedbyxXsD-15" value="&lt;font style=&quot;font-size: 18px;&quot;&gt;&lt;b&gt;H2 DB&lt;/b&gt;&lt;/font&gt;" style="shape=cylinder3;whiteSpace=wrap;html=1;boundedLbl=1;backgroundOutline=1;size=15;fillColor=#f5f5f5;fontColor=#333333;strokeColor=#666666;" vertex="1" parent="1">
          <mxGeometry x="1050" y="335" width="80" height="110" as="geometry" />
        </mxCell>
        <mxCell id="AUySJYUAtM3CedbyxXsD-20" value="&lt;font style=&quot;font-size: 18px;&quot;&gt;&lt;b&gt;Spring Authorization Server&lt;/b&gt;&lt;/font&gt;" style="rounded=1;whiteSpace=wrap;html=1;fillColor=#ffe6cc;strokeColor=#d79b00;" vertex="1" parent="1">
          <mxGeometry x="480" y="560" width="160" height="100" as="geometry" />
        </mxCell>
        <mxCell id="AUySJYUAtM3CedbyxXsD-21" value="&lt;font style=&quot;font-size: 18px;&quot;&gt;&lt;b&gt;Actuator&lt;/b&gt;&lt;/font&gt;" style="rounded=1;whiteSpace=wrap;html=1;fillColor=#e1d5e7;strokeColor=#9673a6;" vertex="1" parent="1">
          <mxGeometry x="504" y="150" width="112" height="70" as="geometry" />
        </mxCell>
        <mxCell id="AUySJYUAtM3CedbyxXsD-23" value="&lt;font style=&quot;font-size: 19px;&quot;&gt;User Authentication&lt;/font&gt;" style="text;html=1;strokeColor=none;fillColor=none;align=left;verticalAlign=middle;whiteSpace=wrap;rounded=0;" vertex="1" parent="1">
          <mxGeometry x="570" y="460" width="120" height="30" as="geometry" />
        </mxCell>
        <mxCell id="AUySJYUAtM3CedbyxXsD-28" value="&lt;font style=&quot;font-size: 19px;&quot;&gt;Testclients for APIs&lt;/font&gt;" style="text;html=1;strokeColor=none;fillColor=none;align=center;verticalAlign=middle;whiteSpace=wrap;rounded=0;" vertex="1" parent="1">
          <mxGeometry x="60" y="280" width="120" height="30" as="geometry" />
        </mxCell>
      </root>
    </mxGraphModel>
  </diagram>
</mxfile>
